<svg viewBox="0 0 1000 1000" xmlns="http://www.w3.org/2000/svg">
  <!-- Definições de setas -->
  <defs>
    <marker id="arrowhead" markerWidth="10" markerHeight="7" refX="10" refY="3.5" orient="auto">
      <polygon points="0 0, 10 3.5, 0 7" fill="#333" />
    </marker>
    <marker id="dashhead" markerWidth="10" markerHeight="7" refX="10" refY="3.5" orient="auto">
      <polygon points="0 0, 10 3.5, 0 7" fill="#333" />
    </marker>
  </defs>
  
  <!-- Título -->
  <text x="500" y="40" font-family="Arial" font-size="24" text-anchor="middle" font-weight="bold">Sistema de Estacionamento - Arquitetura</text>
  
  <!-- Visão Geral da Arquitetura - Seção -->
  <rect x="50" y="70" width="900" height="360" fill="none" stroke="#666" stroke-width="2" stroke-dasharray="5,5" rx="10" ry="10" />
  <text x="180" y="95" font-family="Arial" font-size="18" font-weight="bold">Visão Geral da Arquitetura</text>
  
  <!-- Visão Geral - Componentes -->
  <rect x="100" y="120" width="180" height="60" fill="#f5f5f5" stroke="#666" stroke-width="1" rx="5" ry="5" id="HTML" />
  <text x="190" y="145" font-family="Arial" font-size="14" text-anchor="middle" font-weight="bold">index.html</text>
  <text x="190" y="165" font-family="Arial" font-size="12" text-anchor="middle">Interface principal</text>
  
  <rect x="100" y="250" width="180" height="60" fill="#f5f5f5" stroke="#666" stroke-width="1" rx="5" ry="5" id="CSS" />
  <text x="190" y="275" font-family="Arial" font-size="14" text-anchor="middle" font-weight="bold">style.css</text>
  <text x="190" y="295" font-family="Arial" font-size="12" text-anchor="middle">Estilos e responsividade</text>
  
  <rect x="400" y="120" width="180" height="60" fill="#d5e8d4" stroke="#82b366" stroke-width="1" rx="5" ry="5" id="JS" />
  <text x="490" y="145" font-family="Arial" font-size="14" text-anchor="middle" font-weight="bold">script.js</text>
  <text x="490" y="165" font-family="Arial" font-size="12" text-anchor="middle">Inicialização</text>
  
  <!-- Módulos JavaScript - Subseção -->
  <rect x="350" y="220" width="550" height="180" fill="none" stroke="#666" stroke-width="1" stroke-dasharray="5,5" rx="8" ry="8" />
  <text x="420" y="240" font-family="Arial" font-size="14" font-weight="bold">Módulos JavaScript</text>
  
  <rect x="400" y="260" width="180" height="60" fill="#dae8fc" stroke="#6c8ebf" stroke-width="1" rx="5" ry="5" id="Storage" />
  <text x="490" y="285" font-family="Arial" font-size="14" text-anchor="middle" font-weight="bold">Storage.js</text>
  <text x="490" y="305" font-family="Arial" font-size="12" text-anchor="middle">Gerenciamento de dados</text>
  
  <rect x="650" y="260" width="180" height="60" fill="#d5e8d4" stroke="#82b366" stroke-width="1" rx="5" ry="5" id="Functions" />
  <text x="740" y="285" font-family="Arial" font-size="14" text-anchor="middle" font-weight="bold">Functions.js</text>
  <text x="740" y="305" font-family="Arial" font-size="12" text-anchor="middle">Funcionalidades principais</text>
  
  <rect x="400" y="330" width="180" height="60" fill="#dae8fc" stroke="#6c8ebf" stroke-width="1" rx="5" ry="5" id="Classes" />
  <text x="490" y="355" font-family="Arial" font-size="14" text-anchor="middle" font-weight="bold">Classes.js</text>
  <text x="490" y="375" font-family="Arial" font-size="12" text-anchor="middle">Definição de classes</text>
  
  <!-- Linhas de conexão na Visão Geral -->
  <line x1="190" y1="180" x2="190" y2="250" stroke="#333" stroke-width="2" />
  <line x1="280" y1="150" x2="400" y2="150" stroke="#333" stroke-width="2" />
  <line x1="490" y1="180" x2="490" y2="260" stroke="#333" stroke-width="2" />
  <line x1="580" y1="150" x2="740" y2="260" stroke="#333" stroke-width="2" />
  <line x1="650" y1="290" x2="580" y2="290" stroke="#333" stroke-width="2" />
  <line x1="650" y1="320" x2="490" y2="330" stroke="#333" stroke-width="2" />
  
  <!-- Fluxo de Dados - Seção -->
  <rect x="50" y="450" width="900" height="500" fill="none" stroke="#666" stroke-width="2" stroke-dasharray="5,5" rx="10" ry="10" />
  <text x="150" y="475" font-family="Arial" font-size="18" font-weight="bold">Fluxo de Dados</text>
  
  <!-- Fluxo de Dados - Componentes -->
  <rect x="100" y="500" width="180" height="60" fill="#f9f9f9" stroke="#333" stroke-width="1" rx="5" ry="5" id="UI" />
  <text x="190" y="535" font-family="Arial" font-size="14" text-anchor="middle" font-weight="bold">Interface do Usuário</text>
  
  <rect x="100" y="600" width="180" height="60" fill="#f9f9f9" stroke="#333" stroke-width="1" rx="5" ry="5" id="Events" />
  <text x="190" y="635" font-family="Arial" font-size="14" text-anchor="middle" font-weight="bold">Eventos da Interface</text>
  
  <rect x="400" y="600" width="180" height="60" fill="#d5e8d4" stroke="#82b366" stroke-width="1" rx="5" ry="5" id="Controller" />
  <text x="490" y="625" font-family="Arial" font-size="14" text-anchor="middle" font-weight="bold">script.js</text>
  <text x="490" y="645" font-family="Arial" font-size="12" text-anchor="middle">Controlador</text>
  
  <rect x="400" y="700" width="180" height="60" fill="#d5e8d4" stroke="#82b366" stroke-width="1" rx="5" ry="5" id="BusinessLogic" />
  <text x="490" y="725" font-family="Arial" font-size="14" text-anchor="middle" font-weight="bold">Functions.js</text>
  <text x="490" y="745" font-family="Arial" font-size="12" text-anchor="middle">Lógica de Negócios</text>
  
  <rect x="200" y="800" width="180" height="60" fill="#dae8fc" stroke="#6c8ebf" stroke-width="1" rx="5" ry="5" id="DataManagement" />
  <text x="290" y="825" font-family="Arial" font-size="14" text-anchor="middle" font-weight="bold">Storage.js</text>
  <text x="290" y="845" font-family="Arial" font-size="12" text-anchor="middle">Gerenciamento de Dados</text>
  
  <rect x="600" y="800" width="180" height="60" fill="#dae8fc" stroke="#6c8ebf" stroke-width="1" rx="5" ry="5" id="DataModels" />
  <text x="690" y="825" font-family="Arial" font-size="14" text-anchor="middle" font-weight="bold">Classes.js</text>
  <text x="690" y="845" font-family="Arial" font-size="12" text-anchor="middle">Modelos de Dados</text>
  
  <ellipse cx="290" cy="900" rx="80" ry="40" fill="#ffe6cc" stroke="#d79b00" stroke-width="1" id="LocalStorage" />
  <text x="290" y="905" font-family="Arial" font-size="14" text-anchor="middle" font-weight="bold">LocalStorage</text>
  
  <!-- Setas do Fluxo de Dados -->
  <!-- Setas contínuas (fluxo principal) -->
  <line x1="190" y1="560" x2="190" y2="600" stroke="#333" stroke-width="2" marker-end="url(#arrowhead)" />
  <line x1="280" y1="630" x2="400" y2="630" stroke="#333" stroke-width="2" marker-end="url(#arrowhead)" />
  <line x1="490" y1="660" x2="490" y2="700" stroke="#333" stroke-width="2" marker-end="url(#arrowhead)" />
  <line x1="400" y1="730" x2="290" y2="800" stroke="#333" stroke-width="2" marker-end="url(#arrowhead)" />
  <line x1="580" y1="730" x2="690" y2="800" stroke="#333" stroke-width="2" marker-end="url(#arrowhead)" />
  <line x1="290" y1="860" x2="290" y2="860" stroke="#333" stroke-width="2" marker-end="url(#arrowhead)" />
  <line x1="290" y1="860" x2="290" y2="900" stroke="#333" stroke-width="2" marker-end="url(#arrowhead)" />
  
  <!-- Setas tracejadas (retorno de dados) -->
  <line x1="310" y1="800" x2="400" y2="760" stroke="#333" stroke-width="2" stroke-dasharray="5,3" marker-end="url(#dashhead)" />
  <line x1="600" y1="810" x2="490" y2="760" stroke="#333" stroke-width="2" stroke-dasharray="5,3" marker-end="url(#dashhead)" />
  <line x1="490" y1="700" x2="490" y2="660" stroke="#333" stroke-width="2" stroke-dasharray="5,3" marker-end="url(#dashhead)" />
  <line x1="400" y1="630" x2="280" y2="560" stroke="#333" stroke-width="2" stroke-dasharray="5,3" marker-end="url(#dashhead)" />
</svg>